<?xml version="1.0" encoding="UTF-8"?>
<svg version="1.1" xmlns="http://www.w3.org/2000/svg" width="458" height="648">
<path d="M0 0 C1.08922256 -0.00990463 2.17844513 -0.01980927 3.30067444 -0.03001404 C5.08600082 -0.02326157 5.08600082 -0.02326157 6.90739441 -0.01637268 C8.16469864 -0.02323593 9.42200287 -0.03009918 10.71740723 -0.03717041 C14.16388536 -0.05511513 17.61010906 -0.05393058 21.05661988 -0.04822803 C23.93667484 -0.04513675 26.81668089 -0.05122823 29.69672889 -0.05726677 C36.49453118 -0.0713159 43.29220783 -0.06974873 50.0900116 -0.05836487 C57.09399949 -0.0468946 64.09760399 -0.06093974 71.10154134 -0.08776134 C77.12124186 -0.1099475 83.1408223 -0.11654885 89.16056079 -0.11068493 C92.75295511 -0.10731969 96.34510395 -0.10970072 99.93746376 -0.12693596 C103.94721701 -0.14533348 107.95622943 -0.13118823 111.96598816 -0.11402893 C113.15013306 -0.1236969 114.33427795 -0.13336487 115.55430603 -0.14332581 C128.21459325 -0.02990225 133.55044605 5.86250007 142.12419128 14.49290466 C143.16568192 15.53032511 144.20780856 16.56710738 145.2505188 17.603302 C148.06709447 20.40625487 150.87416264 23.21854917 153.67916131 26.03308177 C156.62054572 28.98208485 159.56926928 31.92373498 162.51681519 34.86657715 C167.46231202 39.80662458 172.40146853 44.75294496 177.33708191 49.7028656 C183.04088132 55.42300799 188.7554321 61.13223851 194.47565204 66.83595651 C199.392571 71.73925895 204.30361642 76.64838665 209.20980519 81.56242567 C212.13761597 84.4949097 215.06740703 87.425338 218.00251198 90.35052299 C220.75985133 93.09919196 223.50973991 95.85510466 226.25406837 98.61676216 C227.26169275 99.62835019 228.27187306 100.63739974 229.28478622 101.64369202 C230.66786823 103.01856492 232.04080274 104.40362343 233.41320801 105.78915405 C234.18395314 106.56103026 234.95469828 107.33290648 235.74879932 108.12817287 C238.71739191 111.69226116 239.58386594 114.46497624 239.81828308 119.07518005 C237.8661798 130.49601059 220.33515834 142.83951898 212.45622253 150.72337341 C210.72061982 152.46361148 208.98521249 154.20404442 207.24998474 155.94465637 C202.56063734 160.64705 197.86804117 165.34618971 193.17437768 170.04427409 C190.24048959 172.98093754 187.30733422 175.91833209 184.37430382 178.85585213 C176.24086633 187.00146059 168.10649848 195.14613742 159.96867085 203.28736019 C159.19025825 204.06610214 159.19025825 204.06610214 158.39612014 204.86057625 C157.87602001 205.38089466 157.35591987 205.90121308 156.82005912 206.43729872 C155.76632428 207.49147701 154.71259099 208.54565686 153.65885925 209.59983826 C153.13618381 210.12273512 152.61350838 210.64563199 152.07499429 211.18437422 C143.58682431 219.67650097 135.10544251 228.17537321 126.62692306 236.67713397 C117.90628438 245.42148361 109.1800332 254.16019928 100.4481141 262.89328486 C95.55163705 267.79067791 90.6575975 272.69045256 85.76975441 277.59646416 C81.1792983 282.20392511 76.58120903 286.80366536 71.97784424 291.39823532 C70.28937876 293.08592859 68.60348087 294.77619508 66.92033958 296.46919823 C64.62420919 298.77799281 62.31904074 301.07736937 60.01135254 303.37460327 C59.01372996 304.38431046 59.01372996 304.38431046 57.99595338 305.41441578 C53.34585649 310.01532241 49.50859411 313.34557973 42.67874146 313.44549561 C37.8405827 312.58188708 35.1877606 309.90662784 31.8634491 306.46263123 C31.23965866 305.84468185 30.61586823 305.22673248 29.97317505 304.59005737 C27.92626569 302.55352273 25.9055179 300.49303947 23.88468933 298.4306488 C22.46493858 297.00545301 21.0438515 295.5815873 19.62149048 294.15899658 C16.64955613 291.17934395 13.68959663 288.18845671 10.7384491 285.18821716 C6.95347804 281.34087159 3.14690827 277.51583223 -0.6678915 273.69808483 C-3.6003271 270.76095199 -6.52464697 267.81585414 -9.44619942 264.86789894 C-10.84759242 263.4544393 -12.25067731 262.04265504 -13.65546989 260.63257408 C-15.61398549 258.66286183 -17.56219837 256.6835232 -19.50764465 254.70091248 C-20.3810701 253.8271698 -20.3810701 253.8271698 -21.2721405 252.93577576 C-26.06289118 248.01589705 -26.06289118 248.01589705 -26.36921692 244.38768005 C-25.32389545 242.63820267 -25.32389545 242.63820267 -23.62197876 240.83305359 C-22.96839197 240.13323616 -22.31480518 239.43341873 -21.64141273 238.71239471 C-20.89158812 237.94523888 -20.1417635 237.17808304 -19.36921692 236.38768005 C-18.56626379 235.56261711 -17.76331066 234.73755417 -16.93602562 233.88748932 C-14.08438374 230.99297526 -11.20776303 228.12516382 -8.32502747 225.26170349 C-7.22357333 224.16381243 -6.12235828 223.06568145 -5.0213623 221.96733093 C-2.66506151 219.61754095 -0.30725979 217.26927149 2.05170631 214.92215729 C5.78197317 211.21028534 9.50780161 207.49397951 13.23287964 203.77690125 C23.82081909 193.21304078 34.41473517 182.65518569 45.01286316 172.10154724 C50.87745327 166.26149795 56.73844938 160.41786561 62.59560746 154.57036233 C66.29822835 150.8742813 70.00530892 147.18275079 73.71575797 143.49452925 C76.01890425 141.20310418 78.31786665 138.90751736 80.61565971 136.6107254 C81.68219024 135.54634366 82.75044429 134.48368574 83.82053375 133.42288208 C85.28015479 131.97544049 86.73348843 130.52196231 88.1854248 129.06681824 C89.000416 128.25496944 89.8154072 127.44312065 90.6550951 126.60667038 C93.52643546 123.38172973 94.60986173 121.47559011 94.69328308 117.13768005 C92.24722176 108.50452246 83.26205059 101.90753234 77.02360535 95.76219177 C75.58486832 94.33802335 74.14613609 92.91385007 72.70758617 91.48949265 C71.1765244 89.97427823 69.64428696 88.46026034 68.11186409 86.94642258 C64.90965638 83.78187245 61.71416045 80.61060269 58.52017212 77.4377594 C57.97920051 76.90042518 57.43822889 76.36309095 56.8808642 75.80947387 C55.77575726 74.7117707 54.67066589 73.61405183 53.56558979 72.51631761 C46.14000604 65.14059389 38.71008097 57.76938558 31.2618866 50.41648865 C26.22117772 45.44017334 21.19115456 40.45332917 16.17325443 35.45401204 C13.52191298 32.81334535 10.86537367 30.17842294 8.19563484 27.55634689 C5.22486894 24.63844378 2.2778144 21.69766975 -0.6678009 18.75437927 C-1.55447449 17.89084839 -2.44114807 17.0273175 -3.35469055 16.13761902 C-4.15233322 15.33317352 -4.94997589 14.52872803 -5.77178955 13.6999054 C-6.47063483 13.00788969 -7.16948011 12.31587399 -7.88950253 11.60288811 C-9.86858793 8.64009613 -9.93726454 6.87845109 -9.36921692 3.38768005 C-6.55964833 0.26355698 -4.07682944 0.01047301 0 0 Z " fill="#E5E5E5" transform="translate(177.3692169189453,-0.3876800537109375)"/>
<path d="M0 0 C15.30840989 -0.06789964 30.61675119 -0.12308768 45.9252739 -0.15543652 C53.03438484 -0.17086045 60.14339511 -0.19186358 67.25244141 -0.22631836 C73.45363381 -0.25635862 79.65475324 -0.27560746 85.8560164 -0.28226548 C89.13508935 -0.2861532 92.41390678 -0.29680479 95.6929245 -0.31719017 C99.36669555 -0.33911193 103.04004078 -0.34196071 106.71386719 -0.34057617 C107.78346176 -0.351362 108.85305634 -0.36214783 109.95506287 -0.3732605 C125.05481286 -0.3120771 137.759911 4.18574618 148.7421875 14.6171875 C157.9885308 24.37543908 162.08127665 36.29983457 162.16113281 49.64111328 C162.17074036 50.94331818 162.1803479 52.24552307 162.19024658 53.58718872 C162.19509698 54.99822817 162.19937521 56.40926969 162.203125 57.8203125 C162.20736607 58.89836466 162.20736607 58.89836466 162.21169281 59.99819565 C162.22664341 63.80511588 162.23589769 67.61199865 162.24023438 71.41894531 C162.24569881 75.31883468 162.26969544 79.21837137 162.29820633 83.11815071 C162.31698719 86.14508001 162.32204654 89.17192716 162.32357025 92.19890976 C162.32656493 93.63479403 162.33448331 95.070678 162.34775543 96.50650406 C162.48236729 112.19467565 159.56669607 128.22702942 148.34765625 140.0625 C133.36565297 152.42701518 114.67727513 157.20504759 95.59375 157.09765625 C94.30839355 157.09614563 94.30839355 157.09614563 92.99707031 157.09460449 C89.83136637 157.08941803 86.66568168 157.07545719 83.5 157.0625 C72.8575 157.0315625 72.8575 157.0315625 62 157 C62 179.11 62 201.22 62 224 C68.27 224 74.54 224 81 224 C81 233.9 81 243.8 81 254 C54.27 254 27.54 254 0 254 C0 244.1 0 234.2 0 224 C5.61 224 11.22 224 17 224 C17 160.31 17 96.62 17 31 C11.39 31 5.78 31 0 31 C0 20.77 0 10.54 0 0 Z M62 41 C62 66.08 62 91.16 62 117 C90.63366513 119.57605234 90.63366513 119.57605234 117.5 109.625 C121.00810033 103.48582443 121.3077165 97.96732451 121.30078125 91.0703125 C121.30720894 89.64656815 121.30720894 89.64656815 121.31376648 88.19406128 C121.31949287 86.19204504 121.32002254 84.19000799 121.31567383 82.18798828 C121.3125175 79.14188742 121.33598186 76.09676198 121.36132812 73.05078125 C121.36360181 71.09895955 121.36430429 69.14713526 121.36328125 67.1953125 C121.372491 66.29297882 121.38170074 65.39064514 121.39118958 64.46096802 C121.34045337 57.4482159 120.2296661 51.86671355 115.8125 46.1875 C109.24697796 41.08098286 102.82361108 40.56849488 94.8125 40.70703125 C93.55663086 40.71156311 93.55663086 40.71156311 92.27539062 40.71618652 C89.1834662 40.73174144 86.09171915 40.77362415 83 40.8125 C76.07 40.874375 69.14 40.93625 62 41 Z " fill="#E5E5E5" transform="translate(0,363)"/>
<path d="M0 0 C15.32568063 -0.06787589 30.65129288 -0.12307398 45.97708607 -0.15543652 C53.09407264 -0.17086638 60.21095878 -0.19188104 67.32788086 -0.22631836 C73.5352896 -0.25634026 79.74262556 -0.27560317 85.95010489 -0.28226548 C89.23305817 -0.28615626 92.51575632 -0.29682287 95.79865456 -0.31719017 C99.4750242 -0.33908389 103.15096785 -0.34196187 106.82739258 -0.34057617 C107.90058243 -0.351362 108.97377228 -0.36214783 110.07948303 -0.3732605 C123.4170452 -0.3191443 137.52112482 3.92261905 147.41796875 13.265625 C159.07617788 26.04647649 161.78469029 39.72594688 161.62890625 56.3515625 C161.62973779 57.98432574 161.63220788 59.61708887 161.63621521 61.24984741 C161.63905063 64.64696904 161.62459302 68.04342311 161.59692383 71.44042969 C161.56278971 75.76180854 161.56889891 80.08200035 161.5875864 84.40343666 C161.59822789 87.76670981 161.5891552 91.12971368 161.57420158 94.49296188 C161.56907524 96.08511934 161.56943288 97.67730558 161.57574654 99.26945877 C161.61364469 114.55726467 158.47523681 128.0814013 147.875 139.6875 C129.68568363 156.60316621 105.95397766 157.32421288 82.6875 157.125 C75.860625 157.08375 69.03375 157.0425 62 157 C62 179.11 62 201.22 62 224 C67.94 224 73.88 224 80 224 C80 233.9 80 243.8 80 254 C53.27 254 26.54 254 -1 254 C-1 244.1 -1 234.2 -1 224 C4.94 224 10.88 224 17 224 C17 160.31 17 96.62 17 31 C11.39 31 5.78 31 0 31 C0 20.77 0 10.54 0 0 Z M62 41 C62 66.08 62 91.16 62 117 C88.43266574 119.51895389 88.43266574 119.51895389 114.84765625 111.31640625 C118.35476916 107.32841261 120.11254377 104.67966045 120.19287109 99.31005859 C120.20893402 98.33499359 120.22499695 97.35992859 120.24154663 96.35531616 C120.2860617 91.87897425 120.32709016 87.40278134 120.35009766 82.92626953 C120.3666246 80.56939802 120.39387104 78.21257596 120.43212891 75.85595703 C120.48708167 72.45318662 120.50880398 69.0515928 120.5234375 65.6484375 C120.54610687 64.60231293 120.56877625 63.55618835 120.59213257 62.47836304 C120.56974396 54.67011946 118.66461773 49.66461773 113.125 44.125 C106.94736747 40.85448866 100.96036773 40.72444002 94.12890625 40.8046875 C93.31031128 40.80670166 92.49171631 40.80871582 91.64831543 40.81079102 C88.61965247 40.82117613 85.59107001 40.84909813 82.5625 40.875 C72.3840625 40.936875 72.3840625 40.936875 62 41 Z " fill="#E5E5E5" transform="translate(297,363)"/>
<path d="M0 0 C3.45000118 2.44705952 6.30362705 5.40847658 9.24584961 8.43530273 C10.13298645 9.3198111 11.02012329 10.20431946 11.93414307 11.1156311 C14.35382131 13.53512612 16.75692576 15.96908557 19.15376735 18.41107821 C21.66739865 20.96486373 24.20057815 23.49911286 26.73158264 26.03565979 C30.97529286 30.2940631 35.20610596 34.56492041 39.42797852 38.8449707 C45.38596803 44.88502131 51.36674669 50.9021018 57.35230625 56.91481483 C61.99831205 61.58344209 66.63851432 66.25783715 71.27734375 70.93359375 C71.775369 71.43552459 72.27339426 71.93745542 72.78651118 72.45459628 C76.08212537 75.77708616 79.37230109 79.1048898 82.65991211 82.43530273 C83.49466568 83.27745834 84.32941925 84.11961395 85.18946838 84.98728943 C85.94496979 85.75428162 86.70047119 86.5212738 87.47886658 87.31150818 C88.13861953 87.97943107 88.79837248 88.64735395 89.47811794 89.33551693 C92.34638426 92.47254105 92.54000674 95.3383879 92.44755363 99.46713829 C91.91788758 102.46470276 91.05541763 103.56065644 88.99539185 105.76797485 C88.35662235 106.45863667 87.71785286 107.14929848 87.05972672 107.86088943 C86.3800169 108.56679592 85.70030708 109.27270241 85 110 C84.34942501 110.67820171 83.69885002 111.35640343 83.02856064 112.05515671 C80.89371372 114.24978569 78.73706318 116.42085568 76.57373047 118.58740234 C75.76143982 119.4046579 74.94914917 120.22191345 74.11224365 121.06393433 C71.44997836 123.74069323 68.78393344 126.41364289 66.1171875 129.0859375 C64.2558694 130.95301295 62.39455145 132.82008856 60.53323364 134.68716431 C57.13898264 138.0909486 53.74292902 141.49292396 50.3454293 144.8934654 C45.35406278 149.8893272 40.36933549 154.89169237 35.3901757 159.8997196 C31.06164437 164.25246833 26.72489526 168.59694305 22.38510513 172.93846512 C20.54460008 174.78199881 18.7065988 176.62803567 16.87115097 178.47660446 C14.31026547 181.05450212 11.74013178 183.62281644 9.16748047 186.18896484 C8.41099213 186.95466797 7.65450378 187.72037109 6.87509155 188.50927734 C6.17154541 189.20725433 5.46799927 189.90523132 4.74313354 190.62435913 C4.13738935 191.23156988 3.53164516 191.83878063 2.90754509 192.46439171 C-0.30305236 195.04898071 -3.14498104 195.95957817 -7.23599243 196.15298462 C-12.91117734 194.41457129 -16.11736932 190.71883745 -20.22412109 186.55224609 C-21.12086548 185.66601562 -22.01760986 184.77978516 -22.94152832 183.86669922 C-25.39326778 181.44224732 -27.82572533 178.99927758 -30.2543025 176.55165052 C-32.80195524 173.98877356 -35.36425348 171.44060615 -37.92422485 168.89004517 C-42.22026483 164.60491137 -46.50352144 160.30730434 -50.77978516 156.00244141 C-55.71914633 151.03042836 -60.67975198 146.0804004 -65.65194643 141.14123857 C-69.92558693 136.89485369 -74.18738882 132.63685275 -78.43957198 128.368981 C-80.97697099 125.82224296 -83.51821355 123.27969623 -86.07020187 120.74757004 C-88.91497325 117.92339981 -91.73452016 115.07527551 -94.55224609 112.22412109 C-95.39792145 111.39059113 -96.2435968 110.55706116 -97.11489868 109.69827271 C-100.50014504 106.23819262 -102.71918101 103.91675533 -104.15298462 99.23599243 C-103.89895175 93.86258657 -102.08251924 90.70735009 -98.32496643 86.95074463 C-97.56086456 86.17962845 -96.7967627 85.40851227 -96.00950623 84.61402893 C-95.17049271 83.78265915 -94.33147919 82.95128937 -93.46704102 82.09472656 C-92.58399292 81.2080278 -91.70094482 80.32132904 -90.7911377 79.40776062 C-88.37308502 76.9829975 -85.9485155 74.56513633 -83.52045941 72.15041447 C-80.97995473 69.62124021 -78.4471824 67.08434334 -75.91331482 64.54852295 C-71.6589097 60.2932356 -67.39856995 56.04396266 -63.13452148 51.79833984 C-58.20325586 46.88826113 -53.28089911 41.96939021 -48.36333519 37.04559159 C-43.63202933 32.30859436 -38.89507865 27.57728307 -34.15531731 22.84874725 C-32.13808279 20.83615964 -30.12274801 18.82169743 -28.10888863 16.80573273 C-25.29921967 13.99383317 -22.48126849 11.1903272 -19.66235352 8.38769531 C-18.82536423 7.54822861 -17.98837494 6.7087619 -17.12602234 5.84385681 C-16.35910065 5.08401993 -15.59217896 4.32418304 -14.80201721 3.5413208 C-14.13631494 2.87767139 -13.47061266 2.21402199 -12.78473759 1.53026199 C-8.95484497 -1.75354799 -4.56431151 -1.57155224 0 0 Z " fill="#E5E5E5" transform="translate(130,20)"/>
<path d="M0 0 C32.67 0 65.34 0 99 0 C99 10.23 99 20.46 99 31 C90.42 31 81.84 31 73 31 C73.00999275 34.20987137 73.00999275 34.20987137 73.02018738 37.48458862 C73.08166257 57.69894878 73.12621656 77.91329654 73.15543652 98.12772942 C73.17085855 108.51894718 73.19185812 118.91009602 73.22631836 129.30126953 C73.25636433 138.36573783 73.27560883 147.43015618 73.28226548 156.49467289 C73.28615217 161.28743436 73.29518739 166.08005303 73.31719017 170.8727684 C73.33779638 175.39863478 73.34378594 179.92430173 73.33932304 184.45021057 C73.3401376 186.09714472 73.34595777 187.74408668 73.35761642 189.39097977 C73.45490984 203.86421208 72.15258168 218.47962322 67.375 232.25 C67.12266602 232.98613525 66.87033203 233.72227051 66.61035156 234.48071289 C59.54297923 253.90758328 44.74478273 268.81539041 26.24609375 277.65234375 C13.28456466 283.03348399 -1.02386039 285 -15 285 C-15 279.39 -15 273.78 -15 268 C-13.040625 267.608125 -11.08125 267.21625 -9.0625 266.8125 C0.28222615 264.63104927 8.15371732 260.8264752 14 253 C21.68775831 240.03288899 25.13752595 226.92741009 25.15821838 211.86279297 C25.16315636 211.08416617 25.16809434 210.30553938 25.17318195 209.50331783 C25.18843679 206.91627637 25.19688467 204.32925948 25.20532227 201.7421875 C25.21491026 199.87896004 25.22492087 198.0157347 25.23532104 196.1525116 C25.26227638 191.10977143 25.28333649 186.06702199 25.30332303 181.02425003 C25.32524061 175.74849015 25.35260098 170.47275853 25.37937927 165.19702148 C25.42922828 155.21354222 25.47419593 145.2300472 25.51740164 135.24653721 C25.56684072 123.87774641 25.62173405 112.50898398 25.67708123 101.14022064 C25.79078162 77.76017339 25.89745307 54.3800986 26 31 C17.42 31 8.84 31 0 31 C0 20.77 0 10.54 0 0 Z " fill="#E5E5E5" transform="translate(172,363)"/>
</svg>
